<?xml version="1.0" standalone="no"?><!DOCTYPE svg PUBLIC "-//W3C//DTD SVG 1.1//EN" "http://www.w3.org/Graphics/SVG/1.1/DTD/svg11.dtd"><svg t="1742952392504" class="icon" viewBox="0 0 1024 1024" version="1.1" xmlns="http://www.w3.org/2000/svg" p-id="4559" xmlns:xlink="http://www.w3.org/1999/xlink" width="200" height="200"><path d="M302.08 438.613333h515.413333c20.48 0 35.84 17.066667 34.133334 37.546667l-46.08 447.146667c-3.413333 27.306667-27.306667 49.493333-56.32 49.493333H370.346667c-29.013333 0-52.906667-22.186667-56.32-49.493333l-46.08-447.146667c-1.706667-20.48 13.653333-37.546667 34.133333-37.546667z" fill="#9b2617" opacity=".3" p-id="4560"></path><path d="M738.986667 989.866667H285.013333c-47.786667 0-87.04-35.84-92.16-83.626667l-59.733333-580.266667c0-6.826667 1.706667-13.653333 6.826667-20.48 5.12-5.12 11.946667-8.533333 18.773333-8.533333h706.56c6.826667 0 13.653333 3.413333 18.773333 8.533333 5.12 5.12 6.826667 11.946667 6.826667 20.48l-59.733333 580.266667c-5.12 47.786667-44.373333 83.626667-92.16 83.626667zM187.733333 349.866667l56.32 551.253333c1.706667 20.48 20.48 37.546667 40.96 37.546667h452.266667c20.48 0 39.253333-15.36 40.96-37.546667L836.266667 349.866667H187.733333z" fill="#9b2617" p-id="4561"></path><path d="M423.253333 791.893333c-13.653333 0-25.6-11.946667-25.6-25.6v-221.866666c0-13.653333 11.946667-25.6 25.6-25.6s25.6 11.946667 25.6 25.6v220.16c0 15.36-10.24 27.306667-25.6 27.306666zM600.746667 791.893333c-13.653333 0-25.6-11.946667-25.6-25.6v-221.866666c0-13.653333 11.946667-25.6 25.6-25.6s25.6 11.946667 25.6 25.6v220.16c0 15.36-11.946667 27.306667-25.6 27.306666zM776.533333 349.866667c-8.533333 0-17.066667-3.413333-22.186666-11.946667l-153.6-240.64-337.92 247.466667c-11.946667 8.533333-27.306667 5.12-35.84-5.12-8.533333-11.946667-5.12-27.306667 5.12-35.84L592.213333 39.253333c5.12-5.12 13.653333-5.12 20.48-5.12 6.826667 1.706667 13.653333 5.12 17.066667 11.946667l168.96 264.533333c6.826667 11.946667 3.413333 27.306667-8.533333 35.84-3.413333 1.706667-8.533333 3.413333-13.653334 3.413334z" fill="#9b2617" p-id="4562"></path></svg>