<?xml version="1.0" standalone="no"?><!DOCTYPE svg PUBLIC "-//W3C//DTD SVG 1.1//EN" "http://www.w3.org/Graphics/SVG/1.1/DTD/svg11.dtd"><svg t="1759052494713" class="icon" viewBox="0 0 1024 1024" version="1.1" xmlns="http://www.w3.org/2000/svg" p-id="30921" xmlns:xlink="http://www.w3.org/1999/xlink" width="200" height="200"><path d="M455.354182 0c152.529455 0 276.200727 122.926545 276.200727 274.571636a274.013091 274.013091 0 0 1-128.930909 232.354909 417.512727 417.512727 0 0 1 107.52 65.768728 236.916364 236.916364 0 0 0-88.436364 29.044363 340.759273 340.759273 0 0 0-181.061818-51.712c-186.647273 0-338.338909 149.131636-341.364363 334.289455v5.585454a37.888 37.888 0 0 1-38.027637 37.79491 37.888 37.888 0 0 1-37.981091-37.79491c0-179.246545 114.036364-332.008727 273.92-390.23709a273.733818 273.733818 0 0 1-118.039272-225.093819C179.2 122.926545 302.824727 0 455.354182 0z m0 75.543273c-110.545455 0-200.192 89.088-200.192 199.028363s89.646545 199.028364 200.192 199.028364c110.592 0 200.238545-89.088 200.238545-199.028364s-89.646545-199.028364-200.238545-199.028363z m436.736 444.555636l79.36 87.505455a23.272727 23.272727 0 0 1-0.651637 31.930181l-321.396363 326.749091-124.834909 45.195637-35.84-45.381818 59.764363-131.677091 309.806546-314.973091a23.272727 23.272727 0 0 1 33.792 0.651636z" fill="#9b6545" p-id="30922"></path></svg>