<?xml version="1.0" standalone="no"?><!DOCTYPE svg PUBLIC "-//W3C//DTD SVG 1.1//EN" "http://www.w3.org/Graphics/SVG/1.1/DTD/svg11.dtd"><svg t="1743493673012" class="icon" viewBox="0 0 1024 1024" version="1.1" xmlns="http://www.w3.org/2000/svg" p-id="2370" xmlns:xlink="http://www.w3.org/1999/xlink" width="200" height="200"><path d="M896 989.184h-768a94.037333 94.037333 0 0 1-93.866667-93.866667v-768c0-51.712 42.154667-93.866667 93.866667-93.866666h333.824c14.165333 0 25.6 11.434667 25.6 25.6s-11.434667 25.6-25.6 25.6H128A42.666667 42.666667 0 0 0 85.333333 127.317333v768a42.666667 42.666667 0 0 0 42.666667 42.666667h768a42.666667 42.666667 0 0 0 42.666667-42.666667V561.493333c0-14.165333 11.434667-25.6 25.6-25.6s25.6 11.434667 25.6 25.6v333.824c0 51.712-42.154667 93.866667-93.866667 93.866667z" fill="#8b4513" p-id="2371" data-spm-anchor-id="a313x.search_index.0.i3.1b903a81ght7GB" class=""></path><path d="M444.586667 788.138667H260.778667c-14.165333 0-25.6-11.434667-25.6-25.6V579.584c0-6.826667 2.730667-13.312 7.509333-18.090667L762.538667 40.96c9.557333-9.557333 26.624-9.728 36.181333 0l183.466667 183.637333c10.069333 10.069333 10.069333 26.282667 0 36.181334L462.677333 780.629333c-4.778667 4.778667-11.264 7.509333-18.090666 7.509334z m-158.208-51.2h147.626666l494.08-494.250667-147.285333-147.456-494.421333 494.933333v146.773334z" fill="#8b4513" p-id="2372" data-spm-anchor-id="a313x.search_index.0.i1.1b903a81ght7GB" class=""></path><path d="M456.533333 537.6m-332.458666 0a332.458667 332.458667 0 1 0 664.917333 0 332.458667 332.458667 0 1 0-664.917333 0Z" fill="#8a7261" opacity=".3" p-id="2373" data-spm-anchor-id="a313x.search_index.0.i4.1b903a81ght7GB" class="selected"></path></svg>