<?xml version="1.0" standalone="no"?><!DOCTYPE svg PUBLIC "-//W3C//DTD SVG 1.1//EN" "http://www.w3.org/Graphics/SVG/1.1/DTD/svg11.dtd"><svg t="1758165910918" class="icon" viewBox="0 0 1706 1024" version="1.1" xmlns="http://www.w3.org/2000/svg" p-id="9131" data-spm-anchor-id="a313x.search_index.0.i27.45503a81jYi53E" xmlns:xlink="http://www.w3.org/1999/xlink" width="333.203125" height="200"><path d="M513.422222 412.501333c-22.357333 0-33.166222-10.865778-33.166222-32.938666a2.844444 2.844444 0 0 0-2.844444-2.844445 2.844444 2.844444 0 0 0-2.844445 2.844445c0 22.072889-10.865778 32.824889-33.166222 32.938666a2.844444 2.844444 0 0 0-2.844445 2.844445 2.844444 2.844444 0 0 0 2.844445 2.844444A34.133333 34.133333 0 0 1 466.488889 426.268444a33.450667 33.450667 0 0 1 8.078222 24.576 2.844444 2.844444 0 0 0 2.844445 2.844445 2.844444 2.844444 0 0 0 2.844444-2.844445 33.223111 33.223111 0 0 1 8.078222-24.576 33.792 33.792 0 0 1 24.746667-8.078222 2.844444 2.844444 0 0 0 2.844444-2.844444 2.844444 2.844444 0 0 0-2.503111-2.844445z m-29.127111 9.728a29.866667 29.866667 0 0 0-6.883555 10.922667A29.240889 29.240889 0 0 0 459.264 415.288889a30.151111 30.151111 0 0 0 18.147556-18.147556A29.923556 29.923556 0 0 0 495.502222 415.288889a29.923556 29.923556 0 0 0-11.207111 6.940444zM716.8 236.088889c-25.201778 0-37.432889-12.288-37.432889-37.205333a2.844444 2.844444 0 0 0-2.844444-2.844445 2.844444 2.844444 0 0 0-2.844445 2.844445c0 24.917333-12.288 37.091556-37.432889 37.205333a2.844444 2.844444 0 0 0-2.844444 2.844444 2.844444 2.844444 0 0 0 2.844444 2.844445h0.341334a38.058667 38.058667 0 0 1 27.932444 9.102222 37.660444 37.660444 0 0 1 9.159111 27.875556 2.844444 2.844444 0 0 0 2.844445 2.844444 2.844444 2.844444 0 0 0 2.844444-2.844444 37.888 37.888 0 0 1 8.988445-27.875556 38.115556 38.115556 0 0 1 27.932444-9.102222h0.512a2.844444 2.844444 0 0 0 2.844444-2.844445 2.787556 2.787556 0 0 0-2.844444-2.844444z m-32.312889 10.752a32.824889 32.824889 0 0 0-7.964444 12.913778 34.133333 34.133333 0 0 0-7.964445-12.913778 33.336889 33.336889 0 0 0-13.141333-7.964445 32.768 32.768 0 0 0 21.105778-20.992 32.540444 32.540444 0 0 0 21.048889 20.992 33.507556 33.507556 0 0 0-13.084445 7.964445z m587.093333 251.050667c-31.004444 0-46.08-15.132444-46.08-45.511112a2.844444 2.844444 0 0 0-2.844444-2.844444 2.844444 2.844444 0 0 0-2.844444 2.844444c0 30.663111-15.075556 45.511111-46.08 45.511112a2.844444 2.844444 0 0 0-2.844445 2.844444 2.844444 2.844444 0 0 0 2.844445 2.844444c15.473778 0 27.249778 3.697778 34.816 11.377778s11.377778 18.944 11.377777 34.133334a2.844444 2.844444 0 0 0 2.844445 2.844444 2.844444 2.844444 0 0 0 2.844444-2.844444c0-15.189333 3.754667-26.680889 11.377778-34.133334s19.228444-11.377778 34.759111-11.377778a2.901333 2.901333 0 0 0 2.844445-2.844444 2.901333 2.901333 0 0 0-3.015112-2.844444z m-38.855111 12.913777a41.244444 41.244444 0 0 0-10.069333 17.066667 40.732444 40.732444 0 0 0-10.126222-17.066667 41.415111 41.415111 0 0 0-17.521778-10.183111 39.822222 39.822222 0 0 0 27.648-27.477333 39.822222 39.822222 0 0 0 27.591111 27.477333 41.415111 41.415111 0 0 0-17.521778 10.183111zM1055.288889 776.533333a19.911111 19.911111 0 1 0 19.911111 19.911111 19.911111 19.911111 0 0 0-19.911111-19.911111z m0 34.133334a14.222222 14.222222 0 1 1 14.222222-14.222223 14.222222 14.222222 0 0 1-14.222222 14.222223z m91.022222-637.155556A19.911111 19.911111 0 1 0 1166.222222 193.422222a19.911111 19.911111 0 0 0-19.911111-19.911111z m0 34.133333A14.222222 14.222222 0 1 1 1160.533333 193.422222a14.222222 14.222222 0 0 1-14.222222 14.222222z" fill="#f4d6c4" p-id="9132" data-spm-anchor-id="a313x.search_index.0.i24.45503a81jYi53E" class=""></path><path d="M933.432889 515.697778l-28.444445 126.464-134.599111-26.510222 18.318223-122.424889zM811.064889 335.644444c-2.958222 14.734222 13.824 17.066667 13.824 17.066667s93.525333 25.543111 96.711111 9.557333a12.970667 12.970667 0 0 0-11.719111-17.066666l-79.644445-12.8s-16.725333-7.623111-19.171555 3.242666z" fill="#f4d6c4" p-id="9133" data-spm-anchor-id="a313x.search_index.0.i26.45503a81jYi53E" class=""></path><path d="M1274.311111 903.566222v1.934222a10.410667 10.410667 0 0 1-10.410667 10.410667h-292.067555a10.410667 10.410667 0 0 1-10.410667-10.410667v-1.934222a10.410667 10.410667 0 0 1 10.410667-10.410666h292.067555a10.410667 10.410667 0 0 1 10.410667 10.410666z m245.589333-10.410666h-229.489777a10.410667 10.410667 0 0 0-10.410667 10.410666v1.934222a10.410667 10.410667 0 0 0 10.410667 10.410667h229.489777a10.410667 10.410667 0 0 0 10.410667-10.410667v-1.934222a10.410667 10.410667 0 0 0-10.410667-10.410666z m-580.266666 0h-41.756445a10.410667 10.410667 0 0 0-10.410666 10.410666v1.934222a10.410667 10.410667 0 0 0 10.410666 10.410667h41.756445a10.410667 10.410667 0 0 0 10.410666-10.410667v-1.934222a10.410667 10.410667 0 0 0-10.410666-10.410666z m-73.955556 0H164.010667a10.410667 10.410667 0 0 0-10.410667 10.410666v1.934222a10.410667 10.410667 0 0 0 10.410667 10.410667h701.667555a10.410667 10.410667 0 0 0 10.410667-10.410667v-1.934222a10.410667 10.410667 0 0 0-10.410667-10.410666z m163.043556-597.333334c0 1.251556 4.209778 30.264889-5.688889 41.699556a13.710222 13.710222 0 0 1-11.036445 4.721778 19.569778 19.569778 0 0 1-2.616888 0 17.066667 17.066667 0 0 1-11.377778-6.087112c-6.940444-8.362667-4.721778-22.072889-4.664889-22.755555 3.868444-20.992 9.557333-31.744 17.351111-32.881778 9.728-1.422222 17.066667 12.913778 18.033778 14.563556a1.536 1.536 0 0 1 0 0.739555z m-5.688889 1.308445c-2.161778-4.152889-7.623111-11.719111-11.946667-11.093334-2.275556 0.341333-8.021333 3.754667-12.572444 28.444445a26.624 26.624 0 0 0 3.413333 18.090666 12.344889 12.344889 0 0 0 9.841778 4.152889 8.135111 8.135111 0 0 0 6.656-2.844444c6.940444-8.078222 5.575111-28.956444 4.721778-36.977778z m-80.554667 212.423111a10.808889 10.808889 0 0 1 1.592889 8.533333l-28.444444 126.464a10.922667 10.922667 0 0 1-10.638223 8.533333 8.817778 8.817778 0 0 1-2.104888 0L768 626.346667a10.865778 10.865778 0 0 1-8.647111-12.344889l18.318222-122.368a10.922667 10.922667 0 0 1 4.323556-7.168 11.377778 11.377778 0 0 1 8.192-1.991111l144.782222 22.414222a10.922667 10.922667 0 0 1 7.509333 4.664889z m-22.300444 15.132444l-122.424889-18.944-15.132445 101.205334 113.777778 22.414222z m3.982222-178.119111a19.740444 19.740444 0 0 1 3.015111 16.497778 10.069333 10.069333 0 0 1-4.892444 6.712889 32.938667 32.938667 0 0 1-16.213334 2.958222c-26.339556 0-70.997333-11.719111-82.375111-14.791111a24.576 24.576 0 0 1-15.416889-8.874667 18.545778 18.545778 0 0 1-2.787555-14.791111 11.946667 11.946667 0 0 1 6.314666-8.647111c6.997333-3.640889 17.066667 0 19.968 1.080889l79.018667 12.629333a19.911111 19.911111 0 0 1 13.368889 7.224889z m-9.045333 6.883556a9.216 9.216 0 0 0-5.688889-2.844445l-80.156445-12.8a4.778667 4.778667 0 0 1-1.365333-0.398222A26.339556 26.339556 0 0 0 819.2 335.644444a5.233778 5.233778 0 0 0-2.104889 0.341334l-0.398222 0.796444a7.736889 7.736889 0 0 0 0.853333 5.688889 13.767111 13.767111 0 0 0 8.192 4.323556h0.682667c42.609778 11.377778 83.171556 17.578667 89.770667 13.368889a8.533333 8.533333 0 0 0-1.080889-6.712889z m47.672889 115.655111a253.155556 253.155556 0 0 0-40.96-16.384c-6.883556-2.389333-13.937778-4.096-20.935112-6.087111s-14.051556-3.356444-21.105777-5.063111-14.222222-2.787556-21.390223-4.039112-14.279111-2.275556-21.560888-2.901333a246.613333 246.613333 0 0 0-44.088889-1.649778 0.512 0.512 0 0 0-0.512 0.455111 0.512 0.512 0 0 0 0.398222 0.625778l84.878222 18.602667 85.333333 17.521778a0.512 0.512 0 0 0 0.625778-0.284445 0.512 0.512 0 0 0 0-0.739555z m-17.578667-188.359111l-14.791111 12.288-12.288-14.734223a5.688889 5.688889 0 1 0-8.704 7.281778l12.174222 14.791111-14.677333 12.515556a5.688889 5.688889 0 0 0-0.739556 8.021333 5.688889 5.688889 0 0 0 4.380445 2.048 5.688889 5.688889 0 0 0 3.640888-1.365333l14.791112-12.288 12.288 14.791111a5.688889 5.688889 0 0 0 4.380444 2.048 5.688889 5.688889 0 0 0 4.380444-9.386667l-12.344888-14.734222 14.791111-12.288a5.688889 5.688889 0 0 0-7.281778-8.760889zM812.202667 295.822222l14.791111-12.288 12.288 14.734222a5.688889 5.688889 0 1 0 8.704-7.281777l-12.288-14.734223 14.791111-12.288a5.688889 5.688889 0 1 0-7.281778-8.760888l-14.791111 12.174222-12.288-14.734222a5.688889 5.688889 0 1 0-8.704 7.281777l12.288 14.734223-14.791111 12.288a5.688889 5.688889 0 0 0-0.682667 8.021333 5.688889 5.688889 0 0 0 4.323556 2.048 5.688889 5.688889 0 0 0 3.640889-1.194667z m-195.527111 352.711111l-39.367112-13.767111a5.688889 5.688889 0 0 0-7.224888 3.470222 5.688889 5.688889 0 0 0 3.470222 7.281778l36.010666 12.572445 13.368889 122.424889a5.688889 5.688889 0 0 0 5.688889 5.063111h0.625778a5.688889 5.688889 0 0 0 5.006222-6.257778l-13.767111-126.008889a5.688889 5.688889 0 0 0-3.811555-4.778667z m202.524444 35.328l-42.496-14.904889a5.688889 5.688889 0 0 0-3.754667 10.752l39.139556 13.710223 14.449778 132.437333a5.688889 5.688889 0 0 0 5.688889 5.063111h0.625777a5.688889 5.688889 0 0 0 5.006223-6.257778L823.125333 688.355556a5.688889 5.688889 0 0 0-3.925333-4.494223z m341.048889 24.462223a51.768889 51.768889 0 0 1-103.537778 0 50.744889 50.744889 0 0 1 6.257778-24.462223c-19.171556-17.521778-30.776889-49.550222-33.109333-56.376889l-2.503112-5.688888-13.880888 96.711111a12.060444 12.060444 0 0 1-0.682667 2.56l-0.284445 0.625777a19.171556 19.171556 0 0 1-1.080888 1.820445l-0.284445 0.398222a10.695111 10.695111 0 0 1-1.763555 1.820445l-0.512 0.341333a7.68 7.68 0 0 1-1.877334 1.080889h-0.341333l-70.087111 29.752889h-0.853334c-15.815111 26.453333-41.642667 55.409778-61.269333 75.832889l-1.194667 0.967111v0.398222a11.377778 11.377778 0 0 1-6.485333 11.662222l-27.534222 13.255111a11.036444 11.036444 0 0 1-9.159111 0l-65.877334-27.591111a11.377778 11.377778 0 0 1-6.883555-9.159111l-9.557333-79.644444-70.769778 43.406222a7.623111 7.623111 0 0 1-2.104889 0.910222l1.080889 9.329778a11.377778 11.377778 0 0 1-6.485334 11.662222l-27.648 12.743111a11.377778 11.377778 0 0 1-4.778666 1.024 11.776 11.776 0 0 1-4.380445-0.853333l-65.877333-27.648a11.377778 11.377778 0 0 1-6.883556-9.102222l-19.171555-159.288889a11.377778 11.377778 0 0 1 6.769778-11.776l34.133333-14.904889a11.377778 11.377778 0 0 1 9.045333 0l33.336889 14.279111a97.450667 97.450667 0 0 1 33.28-22.016 34.816 34.816 0 0 1 0.853334-3.925333 11.377778 11.377778 0 0 1 1.536-3.413334c0.512-0.739556 48.696889-72.135111 78.620444-118.670222l6.656-48.64a11.377778 11.377778 0 0 1 7.395556-9.102222l51.882666-18.659556-45.795555-10.581333a11.377778 11.377778 0 0 1-8.704-12.458667l19.114666-160.938666a11.377778 11.377778 0 0 1 6.883556-9.159112l106.780444-44.657777a11.946667 11.946667 0 0 1 7.054223-0.568889l70.826666 17.066666 8.078222-13.482666a42.439111 42.439111 0 1 1 23.950223 7.452444A41.699556 41.699556 0 0 1 984.177778 159.288889l-6.769778 11.377778 99.783111 23.665777a11.377778 11.377778 0 0 1 8.590222 13.198223L1052.444444 382.691556a11.377778 11.377778 0 0 1-6.428444 8.192l-23.495111 10.752 26.225778 9.045333a11.377778 11.377778 0 0 1 7.509333 12.401778l-5.688889 39.424a103.310222 103.310222 0 0 1 15.928889 36.238222l56.888889 135.054222a56.888889 56.888889 0 0 1 4.096 26.396445 51.882667 51.882667 0 0 1 33.052444 48.128z m-127.488-231.480889a28.444444 28.444444 0 0 0-3.072-3.697778 18.261333 18.261333 0 0 0-3.299556-2.730667l-1.536-0.796444a9.216 9.216 0 0 0-3.754666-0.796445 17.806222 17.806222 0 0 0-8.704 2.844445 24.348444 24.348444 0 0 0-12.174223 15.189333 48.583111 48.583111 0 0 0 4.778667 29.411556 54.044444 54.044444 0 0 1 38.229333-16.327111l-1.080888-3.527112a87.7568 87.7568 0 0 0-3.697778-9.500444c-0.739556-1.592889-1.536-3.185778-2.389334-4.721778a47.559111 47.559111 0 0 0-2.730666-4.380444z m-60.416-359.025778a19.740444 19.740444 0 1 0 19.683555-19.683556 19.740444 19.740444 0 0 0-19.683555 19.683556z m-11.377778 282.851555l14.563556-132.494222-12.970667-2.901333c-8.192-1.763556-16.384-3.697778-24.519111-5.688889-16.270222-3.982222-32.369778-8.533333-48.526222-13.027556l-24.064-7.281777-23.893334-7.907556c-15.872-5.688889-31.687111-11.377778-47.217777-18.147555 17.066667 1.592889 33.507556 4.323556 50.062222 7.281777l24.689778 4.892445 24.576 5.688889c16.270222 3.982222 32.540444 7.964444 48.64 12.458666 8.078222 2.218667 16.156444 4.608 24.177777 7.054223 7.168 2.161778 14.392889 4.380444 21.560889 6.712888 4.608-2.730667 9.272889-5.688889 13.994667-8.078222l17.066667-9.443555c11.377778-6.144 22.755556-12.288 34.645333-17.863111-9.841778 8.590222-20.024889 16.611556-30.208 24.632888l-15.416889 11.776c-5.12 3.982222-10.353778 7.68-15.473778 11.377778v0.398222L978.488889 396.743111l52.736-24.120889 30.321778-158.833778-174.08-41.244444-97.223111 40.618667-17.066667 144.270222z m-98.133333 0.739556l-4.949334 9.841778 80.782223 20.309333 3.185777-11.832889z m-146.659556 137.443556a31.971556 31.971556 0 0 1 10.410667 7.281777l4.039111-29.297777c-4.835556 7.566222-9.728 14.961778-14.449778 22.016z m-15.473778 23.210666c0.796444 4.664889 4.892444 23.153778 19.797334 28.444445l3.982222-28.785778c-6.599111-9.955556-11.377778-12.515556-14.279111-13.084445h-0.568889z m-19.114666 50.858667c5.688889 7.281778 17.521778 10.296889 25.6 11.377778l11.377778-18.887111 0.455111-3.242667a42.496 42.496 0 0 1-26.680889-27.591111l-13.084445 19.456a21.674667 21.674667 0 0 0 2.332445 18.887111z m16.327111 64.853333l11.377778-4.096 0.853333-6.485333a54.784 54.784 0 0 1-12.231111 10.581333z m-45.511111 112.924445l-17.408-148.878223-48.924445-20.935111-21.731555 9.500445 17.066666 144.384 55.125334 23.153778z m8.305778-125.155556a42.268444 42.268444 0 0 0 17.066666-2.730667c10.808889-4.323556 17.863111-12.003556 18.716445-17.066666a55.409778 55.409778 0 0 1-32.881778-18.716445 39.082667 39.082667 0 0 1-5.688889-11.377777 85.333333 85.333333 0 0 0-10.922667 6.940444l3.185778 1.365333a11.377778 11.377778 0 0 1 6.826667 9.159111z m2.901333 25.031111l7.224889-2.616889a66.503111 66.503111 0 0 1-7.452445 0.512z m14.051555 68.266667a75.832889 75.832889 0 0 0-9.443555-29.013333l3.811555 32.426666z m21.617778-57.400889l-30.663111 11.377778c7.623111 6.542222 15.530667 18.318222 19.512889 39.822222l24.120889-14.677333c1.194667-19.285333-6.030222-30.321778-13.198222-36.352z m45.511111 16.384l-3.868444-31.857778-30.264889 11.377778a49.720889 49.720889 0 0 1 12.856889 33.621333z m105.016889 110.990222l-17.408-148.935111-48.867555-20.935111-21.788445 9.500444 17.066667 144.440889 55.125333 23.096889z m27.022222-32.085333a61.212444 61.212444 0 0 0-11.377777-32.142222l4.664889 39.822222c2.104889-2.275556 4.494222-4.892444 6.712888-7.509333z m27.363556-34.133333a43.975111 43.975111 0 0 0-13.084444-27.932445 26.282667 26.282667 0 0 0-14.563556-6.200889l-14.279111 10.24 0.967111 8.590222a57.230222 57.230222 0 0 1 23.324444 37.774223c6.599111-7.281778 12.288-14.904889 17.635556-22.016z m23.495111-45.511112c-10.012444-11.377778-17.066667-12.401778-19.740444-11.377777l-19.456 13.937777a37.489778 37.489778 0 0 1 10.012444 6.144 48.526222 48.526222 0 0 1 14.506667 23.950223c10.581333-15.132444 16.384-27.249778 14.677333-32.085334z m82.432-134.826666l-22.129778-49.891556c-2.673778-4.608-15.644444-28.444444-9.898666-51.541333a46.193778 46.193778 0 0 1 22.755555-29.354667 36.010667 36.010667 0 0 1 28.785778-4.835555l2.616889-18.090667-39.822222-13.824-19.626667 9.671111a11.377778 11.377778 0 0 1-4.721778 1.024 13.084444 13.084444 0 0 1-2.56 0l-12.117333-2.844444-4.778667 17.692444a5.688889 5.688889 0 0 1-5.688889 4.152889 5.688889 5.688889 0 0 1-1.365333 0l-93.525333-23.381333a5.688889 5.688889 0 0 1-3.754667-3.128889 5.688889 5.688889 0 0 1 0-4.892445l6.883556-13.767111-6.314667-1.479111-78.620445 28.444445-32.881777 238.933333 4.835555-1.763556a11.377778 11.377778 0 0 1 6.769778-11.776l34.133333-14.848a11.377778 11.377778 0 0 1 8.988445 0l59.562666 24.974223a11.377778 11.377778 0 0 1 6.826667 9.159111l4.949333 42.439111 35.84-25.656889c0.796444-0.625778 20.593778-14.392889 46.08 11.377778a402.545778 402.545778 0 0 1 0.398223-47.616c0.341333-8.988444 1.365333-17.863111 2.104889-26.794667l3.185777-26.624c1.422222-8.817778 2.730667-17.692444 4.266667-26.453333s3.185778-17.635556 5.290667-26.339556a392.078222 392.078222 0 0 1 14.904889-52.110222 0.568889 0.568889 0 0 1 1.080888 0.284444l-14.336 106.325334-14.791111 101.717333 1.763556 1.820444a26.510222 26.510222 0 0 1 4.096 24.064l42.837333-18.147555z m53.703111-31.402667l-16.554666-39.253333a43.804444 43.804444 0 0 0-36.864 15.416889l16.497777 37.148444a81.464889 81.464889 0 0 0 36.920889-13.312z m17.351111 44.373333a4.892444 4.892444 0 0 1 1.194667-0.398222l-14.051556-33.28a91.022222 91.022222 0 0 1-36.579555 13.482667l13.710222 30.890667a7.281778 7.281778 0 0 1 1.479111 1.137777c0.682667 0.398222 8.704 3.299556 33.962667-11.832889z m15.985778 34.645334l-10.581333-24.405334a82.830222 82.830222 0 0 1-35.669334 13.368889 4.323556 4.323556 0 0 1 0.341334 0.910223 169.984 169.984 0 0 0 13.084444 28.444444c6.769778 0.341333 19.285333-1.991111 32.654222-18.318222z m-18.944 36.807111l1.934222 1.706667 1.251556 0.910222 1.706667 1.137778 1.137777 0.625777 1.934223 0.796445h0.739555a12.174222 12.174222 0 0 0 2.446222 0.398222h0.512a8.021333 8.021333 0 0 0 2.56-0.398222 17.066667 17.066667 0 0 0 11.377778-8.760889 14.791111 14.791111 0 0 0 0.967111-3.072v-0.341333a18.830222 18.830222 0 0 0 0.341334-3.072 35.328 35.328 0 0 0-2.446223-14.051556l-0.512-1.194667a53.532444 53.532444 0 0 1-30.321777 17.749334 56.32 56.32 0 0 0 6.485333 7.395555z m59.562667 41.642667a28.956444 28.956444 0 0 0-18.944-27.079112 42.552889 42.552889 0 0 1-19.228445 12.401778 33.052444 33.052444 0 0 1-10.410666 1.763556 29.013333 29.013333 0 0 1-5.688889-0.625778 28.956444 28.956444 0 1 0 54.499555 13.539556z" fill="#a88767" p-id="9134" data-spm-anchor-id="a313x.search_index.0.i25.45503a81jYi53E" class=""></path></svg>