<?xml version="1.0" standalone="no"?><!DOCTYPE svg PUBLIC "-//W3C//DTD SVG 1.1//EN" "http://www.w3.org/Graphics/SVG/1.1/DTD/svg11.dtd"><svg t="1743047858781" class="icon" viewBox="0 0 1024 1024" version="1.1" xmlns="http://www.w3.org/2000/svg" p-id="46170" xmlns:xlink="http://www.w3.org/1999/xlink" width="200" height="200"><path d="M512.5 597C650.847 597 763 484.847 763 346.5 763 208.153 650.847 96 512.5 96 374.153 96 262 208.153 262 346.5c0 81.383 38.809 153.702 98.931 199.459C210.95 605.946 105 752.6 105 924h80c0-180.597 146.403-327 327-327h0.5z m0-80C418.335 517 342 440.665 342 346.5S418.335 176 512.5 176 683 252.335 683 346.5 606.665 517 512.5 517zM794.863 569.971c9.373-9.373 24.569-9.373 33.942 0l86.974 86.974c9.372 9.372 9.372 24.568 0 33.941l-226.711 226.71a31.999 31.999 0 0 1-23.134 9.369l-89.978-1.427c-8.638-0.137-15.607-7.107-15.744-15.745l-1.427-89.977a31.998 31.998 0 0 1 9.368-23.135l226.71-226.71zM622.992 832.352l0.474 29.931 29.931 0.475L842.24 673.915l-30.406-30.405-188.842 188.842z" fill="#4f68b0" p-id="46171"></path></svg>