<?xml version="1.0" standalone="no"?><!DOCTYPE svg PUBLIC "-//W3C//DTD SVG 1.1//EN" "http://www.w3.org/Graphics/SVG/1.1/DTD/svg11.dtd"><svg t="1743659832527" class="icon" viewBox="0 0 1024 1024" version="1.1" xmlns="http://www.w3.org/2000/svg" p-id="7409" xmlns:xlink="http://www.w3.org/1999/xlink" width="200" height="200"><path d="M172.825859 161.913535l0.103434-0.103434h213.837576c16.911515 0 30.564848-13.653333 30.564848-30.564848s-13.653333-30.564848-30.564848-30.564849H172.825859c-33.616162 0-61.129697 27.500606-61.129697 61.129697v213.94101c0 16.911515 13.653333 30.564848 30.564848 30.564849s30.564848-13.653333 30.564849-30.564849V161.913535z m670.474343-61.220202H629.359192c-16.911515 0-30.564848 13.653333-30.564849 30.564849s13.653333 30.564848 30.564849 30.564848h213.837576l0.103434 0.103435v213.837575c0 16.911515 13.653333 30.564848 30.564849 30.564849s30.564848-13.653333 30.564848-30.564849V161.810101c0-33.616162-27.513535-61.116768-61.129697-61.116768zM172.825859 832.103434v-213.850505c0-16.911515-13.653333-30.564848-30.564849-30.564848S111.696162 601.341414 111.696162 618.252929v213.94101c0 33.616162 27.500606 61.129697 61.129697 61.129697h213.94101c16.911515 0 30.564848-13.666263 30.564848-30.564848 0-16.911515-13.653333-30.564848-30.564848-30.564849H172.929293s-0.103434 0-0.103434-0.090505z m670.474343 0.090505l-0.103434 0.103435H629.359192c-16.911515 0-30.564848 13.653333-30.564849 30.564848s13.653333 30.564848 30.564849 30.564849h213.94101c33.616162 0 61.129697-27.500606 61.129697-61.129697V618.356364c0-16.911515-13.653333-30.564848-30.564848-30.564849s-30.564848 13.653333-30.564849 30.564849v213.837575z m-571.42303-158.254545c5.546667 4.111515 11.933737 6.115556 18.333737 6.115555 9.270303 0 18.437172-4.20202 24.449293-12.231111l115.75596-153.96202c8.119596-10.886465 8.210101-25.78101 0.090505-36.680404l-112.989091-151.001212c-10.123636-13.562828-29.220202-16.329697-42.783031-6.206061-13.562828 10.123636-16.329697 29.220202-6.20606 42.783031l99.141818 132.75798-101.999192 135.628282c-10.033131 13.562828-7.356768 32.672323 6.206061 42.79596z m0 0" p-id="7410" fill="#707070"></path><path d="M587.054545 477.284848l-112.885656-151.091717c-10.123636-13.562828-29.233131-16.329697-42.78303-6.20606-13.562828 10.123636-16.342626 29.220202-6.206061 42.78303l99.141818 132.75798-102.012121 135.628283c-10.123636 13.472323-7.447273 32.659394 6.012121 42.78303 5.546667 4.111515 11.933737 6.115556 18.333738 6.115555 9.270303 0 18.437172-4.20202 24.449292-12.231111l115.75596-153.96202c8.313535-10.79596 8.313535-25.690505 0.193939-36.57697z m0 0" p-id="7411" fill="#707070"></path><path d="M633.664646 667.914343l115.75596-153.96202c8.119596-10.886465 8.210101-25.793939 0.090505-36.680404L636.52202 326.180202c-10.123636-13.562828-29.233131-16.329697-42.78303-6.206061-13.562828 10.123636-16.342626 29.220202-6.206061 42.783031l99.141818 132.75798-102.012121 135.628282c-10.123636 13.472323-7.447273 32.659394 6.012121 42.783031 5.546667 4.111515 11.933737 6.115556 18.333738 6.115555 9.464242 0.103434 18.631111-4.098586 24.656161-12.127677z m0 0" p-id="7412" fill="#707070"></path></svg>