<?xml version="1.0" standalone="no"?><!DOCTYPE svg PUBLIC "-//W3C//DTD SVG 1.1//EN" "http://www.w3.org/Graphics/SVG/1.1/DTD/svg11.dtd"><svg t="1755071158736" class="icon" viewBox="0 0 1024 1024" version="1.1" xmlns="http://www.w3.org/2000/svg" p-id="2594" xmlns:xlink="http://www.w3.org/1999/xlink" width="200" height="200"><path d="M952.2 159.3H848.8c-3.9 0-7.1-3.2-7.1-7.1s3.2-7.1 7.1-7.1h103.5c3.9 0 7.1 3.2 7.1 7.1s-3.2 7.1-7.2 7.1zM827.5 159.3h-3.1c-3.9 0-7.1-3.2-7.1-7.1s3.2-7.1 7.1-7.1h3.1c3.9 0 7.1 3.2 7.1 7.1s-3.2 7.1-7.1 7.1zM772.4 159.3H85.5c-3.9 0-7.1-3.2-7.1-7.1s3.2-7.1 7.1-7.1h686.9c3.9 0 7.1 3.2 7.1 7.1s-3.2 7.1-7.1 7.1z" fill="#FFCC00" p-id="2595"></path><path d="M477.5 150.5c0-28.8 23.3-52.1 52.1-52.1s52.1 23.3 52.1 52.1M121.2 231.1h43c23.7 0 43 19.2 43 43v601.7c0 35.6 28.9 64.5 64.5 64.5H809c35.6 0 64.5-28.9 64.5-64.5V274.1c0-23.7 19.2-43 43-43h43" fill="#FFCC00" p-id="2596"></path><path d="M552.3 462.2v203.1c0 7.8-6.4 14.2-14.2 14.2-7.8 0-14.2-6.4-14.2-14.2V462.2c0-7.8 6.4-14.2 14.2-14.2 7.8 0 14.2 6.3 14.2 14.2zM360.5 393.2v341c0 7.8-6.4 14.2-14.2 14.2-7.8 0-14.2-6.4-14.2-14.2v-341c0-7.8 6.4-14.2 14.2-14.2 7.8 0 14.2 6.4 14.2 14.2zM744.1 393.2v341c0 7.8-6.4 14.2-14.2 14.2-7.8 0-14.2-6.4-14.2-14.2v-341c0-7.8 6.4-14.2 14.2-14.2 7.9 0 14.2 6.4 14.2 14.2z" fill="#FFFFFF" p-id="2597"></path><path d="M571.1 139.9h-14.2c0-24.8-20.2-45-45-45s-45 20.2-45 45h-14.2c0-32.7 26.6-59.2 59.2-59.2s59.2 26.5 59.2 59.2zM938 152.2H834.6c-3.9 0-7.1-3.2-7.1-7.1 0-3.9 3.2-7.1 7.1-7.1H938c3.9 0 7.1 3.2 7.1 7.1 0 3.9-3.2 7.1-7.1 7.1zM813.3 152.2h-3.1c-3.9 0-7.1-3.2-7.1-7.1 0-3.9 3.2-7.1 7.1-7.1h3.1c3.9 0 7.1 3.2 7.1 7.1 0 3.9-3.2 7.1-7.1 7.1z" p-id="2598"></path><path d="M758.2 152.2H71.3c-3.9 0-7.1-3.2-7.1-7.1 0-3.9 3.2-7.1 7.1-7.1h686.9c3.9 0 7.1 3.2 7.1 7.1 0 3.9-3.2 7.1-7.1 7.1zM845 565.5c-3.9 0-7.1-3.2-7.1-7.1V259.8c0-27.6 22.5-50.1 50.1-50.1h43c3.9 0 7.1 3.2 7.1 7.1s-3.2 7.1-7.1 7.1h-43c-19.8 0-35.9 16.1-35.9 35.9v298.6c0 3.9-3.2 7.1-7.1 7.1zM780.5 933.1H559.7c-3.9 0-7.1-3.2-7.1-7.1s3.2-7.1 7.1-7.1h220.8c31.6 0 57.4-25.7 57.4-57.4V627.7c0-3.9 3.2-7.1 7.1-7.1s7.1 3.2 7.1 7.1v233.9c0 39.4-32.1 71.5-71.6 71.5zM483.4 933.1H243.2c-39.5 0-71.6-32.1-71.6-71.6V480.7c0-3.9 3.2-7.1 7.1-7.1s7.1 3.2 7.1 7.1v380.9c0 31.6 25.7 57.4 57.4 57.4h240.1c3.9 0 7.1 3.2 7.1 7.1s-3.1 7-7 7zM178.8 457.2c-3.9 0-7.1-3.2-7.1-7.1V448c0-3.9 3.2-7.1 7.1-7.1s7.1 3.2 7.1 7.1v2.1c0 3.9-3.2 7.1-7.1 7.1zM178.8 393.2c-3.9 0-7.1-3.2-7.1-7.1V259.8c0-19.8-16.1-35.9-35.9-35.9h-43c-3.9 0-7.1-3.2-7.1-7.1s3.2-7.1 7.1-7.1h43c27.6 0 50.1 22.5 50.1 50.1v126.3c0 4-3.2 7.1-7.1 7.1z" p-id="2599"></path><path d="M241.8 514c-3.9 0-7.1-3.2-7.1-7.1v-49.7c0-3.9 3.2-7.1 7.1-7.1s7.1 3.2 7.1 7.1v49.7c0 3.9-3.2 7.1-7.1 7.1z" fill="#FFFFFF" p-id="2600"></path><path d="M241.8 542.4m-7.1 0a7.1 7.1 0 1 0 14.2 0 7.1 7.1 0 1 0-14.2 0Z" fill="#FFFFFF" p-id="2601"></path></svg>